<?xml version="1.0" encoding="UTF-8"?>
<svg width="32px" height="32px" viewBox="0 0 32 32" version="1.1" xmlns="http://www.w3.org/2000/svg" xmlns:xlink="http://www.w3.org/1999/xlink">
    <defs>
        <path d="M30.658675,11.5998393 C27.3585544,0.599437458 22.6002411,-1.95879552 11.5998393,1.34132502 C0.599437458,4.64144557 -1.95879552,9.39975891 1.34132502,20.4001607 C4.64144557,31.4005625 9.39975891,33.9587955 20.4001607,30.658675 C31.4005625,27.3585544 33.9587955,22.6002411 30.658675,11.5998393 Z" id="path-1"></path>
    </defs>
    <g id="Symbols" stroke="none" stroke-width="1" fill="none" fill-rule="evenodd">
        <g id="topbar-checkout" transform="translate(-164.000000, -12.000000)">
            <g id="Mark" transform="translate(164.000000, 12.000000)">
                <mask id="mask-2" fill="white">
                    <use xlink:href="#path-1"></use>
                </mask>
                <use id="Shape" fill="#011E3D" fill-rule="nonzero" xlink:href="#path-1"></use>
                <g id="avatar" mask="url(#mask-2)">
                    <g transform="translate(2.357143, 5.000000)" id="identity-guidelines-bhinneka-com-icon-black">
                        <g transform="translate(-0.000000, 0.000000)">
                            <path d="M4.78571429,18.3571429 L8.20438771,0 L14.588251,0 C17.1565743,0 19.1041224,0.424098828 20.4349622,1.2734724 C21.7645224,2.12230324 22.4285714,3.36696568 22.4285714,5.006917 C22.4285714,6.14543036 22.0880932,7.05034338 21.4096958,7.72405311 C20.7311613,8.39762715 19.7457349,8.80105699 18.4553358,8.93461397 C19.5698523,9.10258913 20.4460205,9.51936109 21.0832005,10.1880506 C21.721203,10.8558807 22.03993,11.6875251 22.03993,12.6816721 C22.03993,14.4351898 21.3229198,15.8195602 19.8918238,16.8349189 C18.4600881,17.8492826 16.4936677,18.3571429 13.992974,18.3571429 L4.78571429,18.3571429 Z M11.9916878,13.8892931 L12.4602052,13.8892931 C13.5835411,13.8892931 14.3663073,13.7725608 14.8097378,13.539865 C15.2535795,13.3066265 15.474655,12.910614 15.474655,12.3528677 C15.474655,11.9196329 15.3202952,11.6015927 15.0131748,11.3975712 C14.7047292,11.1931426 14.2167912,11.0916068 13.5497263,11.0916068 L12.5105161,11.0916068 L11.9916878,13.8892931 Z M13.3222077,6.8034009 L13.6516276,6.8034009 C14.5141327,6.8034009 15.1451895,6.70299572 15.5475396,6.50223058 C15.9482446,6.30142022 16.1500822,5.98319911 16.1500822,5.54761248 C16.1500822,5.21243103 16.0170165,4.94848299 15.7497884,4.75613018 C15.4831087,4.56327987 15.1126085,4.46712608 14.6387904,4.46712608 L13.7645872,4.46712608 L13.3222077,6.8034009 L13.3222077,6.8034009 Z" id="Fill-1" fill="#ED1C24"></path>
                            <polyline id="Fill-4" fill="#FFCA04" points="0 21.0291586 0 23.7190374 3.2575755 23.7190374 27.2525228 18.2055309 27.2525228 17.813071 0 21.0291586"></polyline>
                        </g>
                    </g>
                </g>
            </g>
        </g>
    </g>
</svg>
